<?xml version="1.0" encoding="utf-8"?>
<!-- Generator: Adobe Illustrator 26.0.0, SVG Export Plug-In . SVG Version: 6.00 Build 0)  -->
<svg version="1.1" id="Capa_1" xmlns="http://www.w3.org/2000/svg" xmlns:xlink="http://www.w3.org/1999/xlink" x="0px" y="0px"
	 viewBox="0 0 450 320" style="enable-background:new 0 0 450 320;" xml:space="preserve">
<style type="text/css">
	.st0{clip-path:url(#SVGID_00000123404368354646010150000008319578629847063743_);}
	.st1{fill:#FFFFFF;}
	.st2{fill:#FFA500;}
	.st3{fill:none;}
</style>
<g>
	<defs>
		<rect id="SVGID_1_" width="450" height="320"/>
	</defs>
	<clipPath id="SVGID_00000101803024665845242870000010060957854832237469_">
		<use xlink:href="#SVGID_1_"  style="overflow:visible;"/>
	</clipPath>
	<g id="OE_Square" style="clip-path:url(#SVGID_00000101803024665845242870000010060957854832237469_);">
		<rect class="st1" width="450" height="320"/>
		<rect id="Rechteck_2" class="st2" width="450" height="319.86"/>
		<g id="Continental_Logo_Tagline_Black_Seal" transform="translate(2.431 875.148)">
			<g id="Protection_Area" transform="translate(0 0)">
				<rect id="Rechteck_1" x="-2.14" y="-749" class="st3" width="448.05" height="187.94"/>
			</g>
			<g id="Logo" transform="translate(289.722 289.723)">
				<g id="Gruppe_2">
					<g id="Gruppe_1" transform="translate(666.046 0.548)">
						<path id="Pfad_1" d="M-544.43-933.25h-51.27v-2.01h51.27V-933.25z M-570.09-945.03l4.82-5.57l2,2.41l-5.19,5.36
							c-0.4,0.72-0.73,1.48-1,2.28h-3.84c0.59-1.91,1.73-3.49,3.22-4.45V-945.03z M-586.2-980.5l-3.99,1.34
							c-0.89,0.4-1.75,0.88-2.57,1.45c-0.78,0.64-1.66,1.71-1.73,2.28l3.42,0.96c0.51-0.7,1.05-1.36,1.62-1.98l0.8-0.43l2.82-3.48
							c-0.11-0.08-0.25-0.08-0.36,0L-586.2-980.5z M-563.01-969.17c-2.14-2.76-4.09-5.73-5.84-8.87c1.31-3.93,1.81-8.19,1.47-12.4
							c-0.69-1.52-1.49-2.97-2.4-4.31c-0.49-0.56-2-2.68-2.73-2.68c-0.13-0.01-0.27,0.04-0.38,0.13l0.22,2.33
							c-2.04,1.58-4.73,3.75-7.15,5.89v2.52c0.37,0.41,0.8,0.72,1.27,0.91c1.53-0.47,3.09-0.8,4.66-0.96l-2.89,5.36l-3.31,2.87
							l-4.15-1.58c-0.24-0.09-0.51,0-0.67,0.24l-3.04,3.99c-0.2,0.2-0.3,0.52-0.27,0.83v5.95c-0.05,1.62,0.35,3.22,1.15,4.53l2-3.48
							c-0.36-0.8-0.65-1.64-0.84-2.52v-3.88l1.95-1.69l5.15,4.37c0.79,1.79,1.72,3.48,2.77,5.06c2.32,2.44,4.83,4.6,7.5,6.46
							c0.26,1.65,0.6,3.28,1.04,4.88l6.3,7.8l-3.73,5.63c-1.4,0.93-2.32,2.64-2.46,4.55h4.31l0.47-2.97l5.15-6.88
							c0.24-0.4,0.24-0.59,0-1.15l-1.46-5.95c1.34-1.83,2.12-4.15,2.22-6.59c0-5.52-4.97-6.91-6.55-8.49L-563.01-969.17z
							 M-554.93-959.98c-0.28-1.35-0.67-2.67-1.15-3.94c0,0,0.2-0.24,0.62,0l3.11,2.52c1.35,2.41,2.22,12.3,2.22,15.83
							c-1.52-0.82-2.93-1.9-4.19-3.21L-554.93-959.98z"/>
						<path id="Pfad_2" d="M-613.23-909.06h-1.6v15.75h2.55v-11.87c1.14-0.91,2.45-1.45,3.82-1.55c1.24,0,1.95,0.54,1.95,2.49v10.93
							h2.55v-11.65c0-3.43-1.53-4.34-3.35-4.34c-1.81,0.06-3.56,0.84-4.97,2.22C-612.28-908.71-612.61-909.06-613.23-909.06
							 M-624.33-895.45c-2.22,0-3.64-1.9-3.64-5.68c0-3.78,1.44-5.84,3.64-5.84s3.64,2.04,3.64,5.84
							C-620.69-897.32-622.11-895.45-624.33-895.45 M-624.33-893.14c3.37,0.11,6.17-3.11,6.26-7.17c0.01-0.29,0-0.58-0.02-0.86
							c0.29-4.16-2.26-7.81-5.71-8.16s-6.47,2.73-6.76,6.89c-0.03,0.42-0.03,0.85,0,1.27c-0.31,4.05,2.16,7.64,5.52,8.01
							C-624.81-893.15-624.57-893.14-624.33-893.14 M-635.25-910.85c0.81-0.01,1.45-0.82,1.44-1.79c-0.01-0.98-0.68-1.76-1.49-1.74
							c-0.81,0.01-1.45,0.82-1.44,1.79c0,0,0,0,0,0C-636.71-911.62-636.06-910.85-635.25-910.85 M-634.01-893.36v-13.39
							c0-1.98-0.13-2.36-1.11-2.36h-1.42v15.75L-634.01-893.36z M-647.55-906.94h1.55v9.75c0,2.95,1.31,4.04,3.53,4.04
							c0.7,0.01,1.39-0.09,2.06-0.29v-1.98h-1.18c-1.29,0-1.86-0.48-1.86-2.14v-9.32h2.91v-2.17h-2.88v-4.26h-2.55v4.26h-1.55
							L-647.55-906.94z M-655.74-895.5c-2.22,0-3.64-1.9-3.64-5.68s1.44-5.84,3.64-5.84s3.64,2.04,3.64,5.84
							S-653.52-895.5-655.74-895.5 M-655.74-893.2c3.36,0.11,6.15-3.09,6.24-7.14c0.01-0.3,0-0.6-0.03-0.89
							c0.2-4.15-2.42-7.71-5.85-7.96c-3.44-0.25-6.39,2.92-6.6,7.07c-0.01,0.3-0.01,0.6,0,0.9c-0.31,4.05,2.16,7.64,5.52,8.01
							C-656.21-893.2-655.97-893.19-655.74-893.2 M-682.06-893.36h2.22v-17.14l0,0l4.95,17.2h1.69l4.99-17.2l0,0v17.2h2.69v-21.05
							h-3.68l-4.62,16.07l0,0l-4.62-16.07h-3.75L-682.06-893.36z M-701.9-909.11h-1.6v15.75h2.53v-11.81
							c1.14-0.91,2.46-1.44,3.82-1.55c1.24,0,1.98,0.54,1.98,2.49v10.93h2.53v-11.65c0-3.43-1.51-4.34-3.33-4.34
							c-1.82,0.07-3.57,0.85-4.99,2.22c0-1.63-0.31-1.98-0.93-1.98 M-709.02-910.85c0.8,0,1.46-0.77,1.49-1.74
							c-0.01-0.99-0.67-1.78-1.49-1.79c-0.82,0.01-1.49,0.81-1.51,1.79C-710.51-911.61-709.84-910.84-709.02-910.85 M-707.78-893.36
							v-13.39c0-1.98-0.13-2.36-1.13-2.36h-1.42v15.75L-707.78-893.36z M-725.4-907.24c1.78,0,2.89,1.18,2.93,4.58h-6.24
							C-728.42-906-727.11-907.24-725.4-907.24 M-719.99-900.65v-1.07c0-5.2-2-7.63-5.44-7.63c-3.37,0.07-6.05,3.43-5.99,7.5
							c0,0.18,0.01,0.36,0.02,0.54c-0.44,3.89,1.82,7.46,5.04,7.99c0.39,0.06,0.78,0.08,1.18,0.05c1.67,0.11,3.33-0.42,4.75-1.5
							v-2.14h-0.84c-1.02,0.98-2.29,1.5-3.6,1.45c-2.44,0-3.84-1.42-3.97-5.14L-719.99-900.65z M-733.75-906.57h0.58v-2.68
							c-0.24-0.04-0.47-0.04-0.71,0c-1.46,0.07-2.83,0.91-3.73,2.3c0-1.82-0.33-2.17-0.95-2.17h-1.6v15.75h2.55v-11.44
							C-736.55-905.95-735.17-906.58-733.75-906.57 M-750.84-895.5c-1.2,0-2.02-0.48-2.02-2.52v-11.04h-2.55v11.73
							c-0.22,2.07,1,3.96,2.71,4.22c0.29,0.04,0.57,0.04,0.86-0.01c1.72-0.04,3.39-0.74,4.77-1.98c0,1.55,0.33,1.79,0.93,1.79h1.6
							v-15.75h-2.53V-897c-1.1,0.88-2.37,1.39-3.68,1.5 M-765.64-906.89h1.58v9.7c0,2.95,1.31,4.04,3.53,4.04
							c0.7,0.01,1.39-0.09,2.06-0.29v-1.98h-1.18c-1.29,0-1.86-0.48-1.86-2.14v-9.32h2.89v-2.17h-2.89v-4.26h-2.64v4.26h-1.58
							L-765.64-906.89z M-775.25-895.5c-1.2,0-2.02-0.48-2.02-2.52v-11.04h-2.53v11.73c-0.23,2.05,0.97,3.94,2.67,4.22
							c0.29,0.05,0.59,0.04,0.88-0.01c1.72-0.05,3.39-0.75,4.77-1.98c0,1.55,0.31,1.79,0.91,1.79h1.6v-15.75h-2.51V-897
							c-1.1,0.88-2.37,1.4-3.68,1.5 M-789.85-893.31v-9.05h6.1v-2.44h-6.19v-7.05h8.06v-2.52h-10.76v21.05H-789.85z M-807.85-907.18
							c1.8,0,2.89,1.18,2.93,4.58h-6.21C-810.87-905.95-809.56-907.18-807.85-907.18 M-802.55-900.59v-1.07
							c0-5.2-2.02-7.63-5.46-7.63c-3.37,0.07-6.05,3.43-5.99,7.5c0,0.18,0.01,0.36,0.02,0.54c-0.44,3.88,1.82,7.46,5.04,7.99
							c0.39,0.06,0.78,0.08,1.18,0.05c1.71,0.09,3.39-0.47,4.82-1.61v-2.14h-0.82c-1.03,0.98-2.31,1.49-3.62,1.45
							c-2.44,0-3.84-1.42-3.97-5.14L-802.55-900.59z M-825.52-912.33c0-1.77-0.18-2.04-1.15-2.04h-1.4v21.06h2.55v-11.87
							c1.14-0.91,2.45-1.45,3.82-1.55c1.24,0,1.98,0.54,1.98,2.49v10.93h2.53v-11.65c0-3.43-1.51-4.34-3.33-4.34
							c-1.82,0.06-3.58,0.84-4.99,2.22L-825.52-912.33z M-836.04-893.31v-18.59h5.02v-2.46h-12.74v2.46h5.02v18.59H-836.04z"/>
					</g>
					<path id="Pfad_3" d="M-22.05-961.71c0-3.78-1-6.75-3.73-6.75s-3.84,2.97-3.84,6.75v25.02h3.22v3.99h-17.53v-3.99h3.26v-34.45
						h-3.26V-975h13.8v6.46h0.16c1.58-4.45,5.22-7.32,9.23-7.29c4.47-0.23,8.41,3.51,9.28,8.81c0.34,2.25,0.5,4.54,0.49,6.83v23.49
						h4.19v3.99h-15.27V-961.71z M-92.83-961.71c0-3.78-1-6.75-3.73-6.75c-2.73,0-3.84,2.97-3.84,6.75v25.02h3.22v3.99h-17.53v-3.99
						h3.26v-34.45h-3.26V-975h13.72v6.46h0.16c1.58-4.45,5.22-7.32,9.23-7.29c4.47-0.23,8.41,3.51,9.28,8.81
						c0.34,2.25,0.5,4.54,0.49,6.83v23.49h4.19v3.99h-15.18V-961.71z M8.07-971.14v31.37c-0.13,1.32,0.65,2.52,1.75,2.68
						c0.16,0.02,0.32,0.02,0.47,0c0.7-0.02,1.4-0.16,2.06-0.43v3.86c-2.11,1.21-4.44,1.76-6.77,1.58c-5.46,0-8.66-3.24-8.66-10.07
						v-28.98H-6.8v-2.84c4.13-3.99,8.88-8.55,12.81-12.4h2.04V-975h5.35v3.86H8.07z M-210.63-996.96c0,0,8.46,10.18,12.34,15.46
						v3.96c-4.96-5.43-11.41-8.44-18.11-8.46c-15.78,0-25.7,14.36-25.7,32.15c0,17.79,9.39,32.15,25.7,32.15
						c6.9,0.04,13.5-3.35,18.27-9.38v3.8c-4.93,8.04-13.96,13.39-25.19,13.39c-19.97,0-33.93-17.63-33.93-40.02
						c0.22-22.29,15.37-40.15,33.84-39.89c0.03,0,0.06,0,0.09,0c4.33,0,8.62,0.91,12.7,2.68V-996.96z M-49.01-943.98
						c-1.95,2.66-4.79,4.11-7.72,3.94c-3.2,0-8.12-2.14-8.35-11.97h18.73v-3.03c0-11.92-4.04-20.79-14.58-20.79s-16,9.83-16,22.05
						c0,12.22,5.39,21.86,16,21.86c5.81,0.38,11.22-3.58,13.63-9.96L-49.01-943.98z M-65.08-956.14c0-11.14,0.73-15.32,3.88-15.32
						s3.84,4.07,3.95,15.32H-65.08z M-219.75-953.97c0-12.91,1-18.75,4.62-18.75c3.62,0,4.62,5.71,4.62,18.75s-1,18.75-4.62,18.75
						C-218.75-935.22-219.75-940.92-219.75-953.97 M-232.76-953.97c0,12.78,6.5,23.17,17.62,23.17s17.62-10.39,17.62-23.17
						s-6.5-23.2-17.62-23.2c-11.12,0-17.62,10.61-17.62,23.33 M-172.68-961.71c0-3.78-1-6.75-3.73-6.75s-3.84,2.97-3.84,6.75v25.02
						h3.2v3.99h-17.51v-3.99h3.24v-34.45h-3.24V-975h13.8v6.46h0.16c1.58-4.45,5.22-7.32,9.23-7.29c4.47-0.22,8.41,3.52,9.28,8.81
						c0.33,2.25,0.49,4.54,0.47,6.83v23.49h4.22v3.99h-15.27V-961.71z M-133-986.19c0,3.72,2.77,6.19,6.66,6.19s6.77-2.46,6.77-6.19
						c0-3.72-2.77-6.21-6.77-6.21C-130.33-992.41-133-989.94-133-986.19 M-142.56-971.14v31.37c-0.13,1.32,0.65,2.52,1.75,2.68
						c0.16,0.02,0.32,0.02,0.47,0c0.7-0.01,1.38-0.16,2.04-0.43v3.86c-2.07,1.2-4.36,1.74-6.66,1.58c-5.46,0-8.68-3.24-8.68-10.07
						v-28.98h-3.77v-2.84c4.13-3.99,8.88-8.55,12.78-12.4h2.06V-975h4.28v3.86H-142.56z M62.11-936.69h4.31v3.99H51.04v-54.08H47.2
						v-3.88h14.91L62.11-936.69z M32.5-953.65c-0.67-0.67-1.53-0.99-2.4-0.88c-3.31,0-4.04,3.91-4.04,8.04c0,4.13,1,7.21,3.82,7.21
						c0.98,0.06,1.94-0.4,2.62-1.26L32.5-953.65z M32.99-937.76h-0.16c-1.95,3.7-5.35,5.92-8.99,5.84c-5.7,0-9.28-5.89-9.28-12.94
						c0-8.46,4.99-13.85,12.96-13.85c1.69-0.07,3.37,0.23,4.97,0.88v-2.68c0.31-3.96-2.11-7.47-5.39-7.84
						c-0.35-0.04-0.7-0.04-1.04-0.01c-3.17,0.04-6.15,1.87-8.03,4.96l-1.93-2.87c2.95-5.84,8.18-9.45,13.85-9.56
						c8.5,0,13.54,6.08,13.54,15.32v23.81h3.57v3.99H32.9L32.99-937.76z M-135.04-932.7v-3.99h3.2v-34.45h-3.2V-975h14.27v38.31
						h3.26v3.99H-135.04z"/>
				</g>
			</g>
		</g>
	</g>
</g>
</svg>
