<svg xmlns="http://www.w3.org/2000/svg"  viewBox="0 0 48 48" width="48px" height="48px" fill-rule="evenodd" clip-rule="evenodd" baseProfile="basic"><path fill="#010101" d="M23.92,44.895c-0.07,0-0.126-0.012-0.167-0.035c-7.165-4.079-11.813-8.397-14.63-13.59	c-3.11-5.735-3.534-11.324-3.763-18.033c-0.028-0.808-0.078-1.632-0.128-2.462C5.14,9.27,5.045,7.714,5.084,6.223	c0.002-0.078-0.004-0.2-0.011-0.347c-0.048-1.028-0.045-1.839,0.466-2.14c0.146-0.085,0.284-0.109,0.385-0.128	c5.795-0.991,11.959-1.93,18.106-1.569l0,0c1.542,0.09,3.03,0.156,4.489,0.222c4.488,0.199,8.727,0.389,13.475,1.231	c0.896,0.159,0.968,5.995,0.968,6.054c0,2.085-0.061,3.962-0.187,5.738l-0.088,1.295c-0.161,2.396-0.327,4.873-0.79,7.286	c-0.317,1.647-0.843,3.23-1.563,4.705c-0.604,1.233-1.467,2.768-2.641,4.69c-1.701,2.787-3.556,5.063-5.671,6.956	C31.306,40.856,25.236,44.895,23.92,44.895z M6.099,4.593c-0.073,0.269-0.041,0.96-0.027,1.236C6.08,6.006,6.086,6.154,6.084,6.248	C6.046,7.696,6.139,9.23,6.229,10.713c0.051,0.839,0.102,1.673,0.129,2.488c0.226,6.577,0.637,12.048,3.643,17.592	c2.703,4.983,7.183,9.151,14.089,13.107c0.979-0.361,5.846-3.161,7.263-4.43c2.042-1.826,3.835-4.028,5.485-6.731	c1.141-1.869,2.015-3.42,2.596-4.608c0.681-1.395,1.179-2.894,1.479-4.455c0.452-2.352,0.616-4.798,0.775-7.163l0.089-1.299	c0.124-1.753,0.184-3.606,0.184-5.668c0-0.463-0.27-4.116-0.441-5.121c-4.564-0.788-8.687-0.971-13.045-1.165	c-1.464-0.065-2.956-0.132-4.503-0.223l0,0C17.928,2.688,11.83,3.612,6.099,4.593L6.099,4.593z"/><path fill="#1c1c1c" fill-rule="evenodd" d="M36.863,6.414c0.062-0.051,0.136-0.088,0.212-0.106	c0.21-0.048,0.427,0.009,0.637,0.057c0.762,0.175,1.546,0.231,2.324,0.307c0.124,0.012,0.255,0.028,0.352,0.105	C40.844,7.139,40.158,7.131,40,7.132c-0.374,0.003-0.774-0.093-1.146-0.135c0,0.561,0.041,1.122,0.027,1.683	c-0.008,0.322-0.193,1.143-0.549,0.433c-0.09-0.18-0.081-0.391-0.07-0.592c0.017-0.314,0.239-1.361,0.028-1.58	c-0.182-0.189-1.507,0.039-1.578-0.175C36.686,6.631,36.756,6.502,36.863,6.414z" clip-rule="evenodd"/><path fill="#1c1c1c" fill-rule="evenodd" d="M16.159,5.961c-0.001,0.145-0.001,0.291-0.002,0.436	c0,0.035-2.721,0.206-2.926,0.222c-0.043,0.003-0.09,0.009-0.119,0.041c-0.029,0.032-0.029,0.08-0.028,0.122	c0.005,0.176,0.01,0.351,0.015,0.527c0-0.028,2.487-0.177,2.699-0.191c0.158,0.61-0.658,0.495-1.002,0.522	c-0.567,0.043-1.134,0.079-1.7,0.127v0.752c1.018-0.087,2.038-0.162,3.057-0.225v0.448c0-0.073-3.181,0.355-3.472,0.248	c-0.344-0.128-0.063-1.134-0.062-1.411c0.002-0.306-0.045-0.66,0.007-0.961c0.064-0.363-0.013-0.311,0.334-0.418	C13.228,6.117,16.159,6.061,16.159,5.961z" clip-rule="evenodd"/><path fill="#1c1c1c" fill-rule="evenodd" d="M27.412,5.875c0.221-0.221,0.615-0.186,1.227-0.111	c0.527,0.065,1.06,0.089,1.591,0.072c0.162-0.005,0.336-0.011,0.475,0.073s0.209,0.299,0.092,0.412	c-0.858-0.04-1.717-0.079-2.575-0.119c-0.093-0.004-0.19-0.008-0.273,0.035c-0.151,0.079-0.19,0.274-0.208,0.444	c-0.006,0.05-0.01,0.104,0.016,0.147c0.04,0.067,0.131,0.076,0.209,0.079c0.669,0.019,1.338,0.037,2.007,0.056	c0.147,0.004,0.303,0.011,0.422,0.096c0.12,0.085,0.173,0.278,0.066,0.379c-0.905-0.031-1.81-0.062-2.716-0.093	c0.002,0.182-0.077,0.624,0.068,0.746c0.138,0.116,0.775,0.031,0.962,0.038c0.417,0.015,0.911,0.036,1.356,0.057	c0.525,0.024,0.682-0.062,0.682,0.481c-1.18-0.06-2.36-0.105-3.541-0.134c0-0.615-0.1-1.227-0.084-1.844	C27.197,6.27,27.268,6.018,27.412,5.875z" clip-rule="evenodd"/><path fill="#1c1c1c" fill-rule="evenodd" d="M21.128,5.749c0,0.671,0.429,2.226-0.286,2.648	c-0.182,0.107-0.396,0.141-0.604,0.172c-0.713,0.108-2.204,0.513-2.75-0.177c-0.126-0.16-0.132-0.38-0.132-0.584	c0-0.638-0.001-1.276-0.001-1.915c0.686-0.038,0.48,0.475,0.48,1.045c0,0.342,0,0.684,0,1.026c0,0.128,0.109,0.231,0.254,0.225	c0.768-0.036,1.537-0.065,2.305-0.087c0.146-0.004,0.243-0.116,0.243-0.243V5.761C20.8,5.756,20.963,5.752,21.128,5.749z" clip-rule="evenodd"/><path fill="#1c1c1c" fill-rule="evenodd" d="M34.872,6.07c-0.275-0.061-0.566-0.08-0.84-0.093	c-0.674-0.031-2.018-0.202-2.018,0.744c0,0.504-0.203,1.607,0.295,1.917c0.151,0.094,0.333,0.118,0.509,0.14	c0.663,0.082,2.376,0.604,2.903-0.026c0.12-0.143,0.129-0.345,0.134-0.532c0.006-0.269,0.012-0.538,0.018-0.807	c0.006-0.254,0.009-0.52-0.102-0.749c-0.121-0.251-0.367-0.424-0.63-0.518C35.053,6.116,34.963,6.091,34.872,6.07z M35.38,8.279	c0,0.127-0.127,0.244-0.254,0.233c-0.757-0.065-1.515-0.119-2.273-0.171c-0.073-0.005-0.15-0.011-0.214-0.047	C32.51,8.22,32.474,8.049,32.481,7.9c0.02-0.405,0.01-0.809,0.01-1.215c0-0.146,0.109-0.248,0.255-0.238	c0.794,0.052,1.587,0.112,2.38,0.179c0.127,0.011,0.254,0.131,0.254,0.276V8.279z" clip-rule="evenodd"/><path fill="#1c1c1c" fill-rule="evenodd" d="M23.254,5.758c0.692-0.153,1.505-0.25,2.21-0.159	c0.144,0.019,0.297,0.055,0.392,0.164c0.096,0.109,0.093,0.31-0.037,0.374c-0.05,0.024-0.107,0.025-0.163,0.025	c-0.819,0-1.638-0.001-2.456-0.001c-0.106,0-0.223,0.004-0.302,0.076c-0.088,0.081-0.094,0.216-0.093,0.336	c0.002,0.379,0.004,0.759,0.006,1.138c0,0.092,0.004,0.193,0.067,0.26c0.069,0.074,0.182,0.079,0.284,0.079	c0.768,0.001,1.536,0.002,2.304,0.002c0.039,0,0.082-0.002,0.109-0.029c0.026-0.027,0.027-0.068,0.027-0.105	c0-0.159,0-0.317,0-0.476c0-0.04-0.002-0.085-0.029-0.114c-0.031-0.034-0.084-0.035-0.13-0.034	c-0.272,0.008-0.544,0.015-0.816,0.023c-0.146,0.004-0.304,0.005-0.425-0.078c-0.121-0.083-0.167-0.285-0.05-0.373	c0.363-0.018,1.504-0.212,1.797,0.004c0.273,0.202,0.121,1.044,0.107,1.397c-0.002,0.061-0.007,0.127-0.046,0.174	c-0.051,0.06-0.141,0.064-0.22,0.064c-0.863-0.004-1.726-0.009-2.589-0.013c-0.269-0.001-0.581-0.024-0.737-0.243	c-0.084-0.117-0.102-0.268-0.115-0.412c-0.04-0.462-0.04-0.928,0-1.39c0.011-0.13,0.028-0.266,0.108-0.369	c0.081-0.104,0.211-0.155,0.336-0.195C22.944,5.834,23.098,5.793,23.254,5.758z" clip-rule="evenodd"/><path fill="#1c1c1c" d="M10.653,6.425c-0.015,0.001-0.029,0.002-0.044,0.004C9.681,6.508,8.757,6.624,7.833,6.741v2.783	c0.163-0.021,0.326-0.041,0.488-0.061c0,0,0.011-0.799,0.014-0.866c0.011-0.172,2.237-0.209,2.455-0.281	c0.656-0.215,1.285-1.535,0.359-1.857C10.992,6.404,10.821,6.411,10.653,6.425z M11.051,7.623c0,0.121-0.127,0.237-0.253,0.251	C9.972,7.959,9.146,8.052,8.321,8.153V7.129c0.825-0.101,1.65-0.194,2.476-0.28c0.126-0.013,0.253,0.083,0.253,0.211V7.623z"/><path fill="#010101" d="M26.857,21.068c-0.117,0-0.233-0.04-0.328-0.123c-0.841-0.731-1.13-2.004-0.687-3.027	c0.103-0.236,0.241-0.456,0.381-0.674c0.077-0.12,0.155-0.24,0.223-0.365c0.09-0.165,0.229-0.477,0.15-0.713	c-0.079-0.235-0.38-0.382-0.638-0.405c-0.37-0.034-0.773,0.1-1.123,0.229c-0.412,0.151-0.728,0.173-1.063,0.194l-0.248,0.018	c-0.278,0.016-0.517-0.182-0.54-0.457c-0.023-0.274,0.181-0.517,0.457-0.539l0.266-0.02c0.304-0.02,0.505-0.033,0.782-0.135	c0.486-0.178,1.01-0.339,1.56-0.286c0.699,0.064,1.3,0.5,1.495,1.085c0.149,0.447,0.072,0.969-0.221,1.508	c-0.08,0.146-0.17,0.287-0.26,0.428c-0.111,0.172-0.223,0.343-0.304,0.53c-0.271,0.624-0.087,1.43,0.425,1.876	c0.208,0.181,0.23,0.497,0.049,0.705C27.136,21.01,26.997,21.068,26.857,21.068z"/><path fill="#010101" d="M35.49,27.932c-0.027,0-0.055-0.002-0.083-0.007c-0.272-0.045-0.457-0.303-0.411-0.575	c0.178-1.071,0.684-2.099,1.423-2.893l0.13-0.137c0.173-0.179,0.336-0.349,0.407-0.524c0.083-0.205,0.066-0.485,0.05-0.756	l-0.182-3.043c-0.017-0.273-0.034-0.558-0.139-0.759c-0.108-0.207-0.338-0.386-0.56-0.559l-2.375-1.841	c-0.355-0.276-0.758-0.588-1.175-0.653c-0.316-0.05-0.677,0.037-1.027,0.119c-0.264,0.063-0.601,0.198-0.926,0.33	c-0.36,0.146-0.732,0.295-1.068,0.375c-0.271,0.066-0.538-0.103-0.602-0.371s0.102-0.538,0.371-0.602	c0.264-0.063,0.6-0.198,0.926-0.33c0.36-0.145,0.732-0.295,1.069-0.375c0.424-0.101,0.905-0.214,1.412-0.135	c0.672,0.105,1.205,0.519,1.634,0.851l2.375,1.842c0.278,0.217,0.625,0.486,0.833,0.886c0.204,0.391,0.229,0.818,0.25,1.162	l0.182,3.043c0.021,0.346,0.046,0.774-0.121,1.189c-0.144,0.356-0.394,0.615-0.614,0.845l-0.119,0.124	c-0.607,0.652-1.022,1.496-1.168,2.375C35.942,27.759,35.73,27.932,35.49,27.932z"/><path fill="#010101" d="M26.253,39.358C26.253,39.358,26.253,39.358,26.253,39.358c-0.221,0-0.415-0.145-0.479-0.354	c-0.646-2.134-0.465-4.511,0.498-6.521c0.119-0.249,0.419-0.354,0.667-0.235c0.249,0.119,0.354,0.418,0.235,0.667	c-0.585,1.221-0.846,2.593-0.77,3.944c0.342-0.842,0.789-1.658,1.459-2.333c0.626-0.63,1.414-1.085,2.046-1.45	c1.267-0.732,2.703-1.563,3.254-2.909c0.311-0.759,0.318-1.638,0.324-2.488l0.02-2.839c0.002-0.323,0.004-0.591-0.06-0.822	c-0.149-0.535-0.657-0.932-1.194-1.351c-0.155-0.121-0.309-0.241-0.456-0.365c-0.734-0.62-1.337-1.409-1.743-2.281	c-0.117-0.25-0.008-0.548,0.242-0.664c0.25-0.117,0.548-0.009,0.665,0.242c0.346,0.741,0.858,1.412,1.482,1.939	c0.137,0.115,0.281,0.228,0.425,0.341c0.611,0.477,1.305,1.018,1.542,1.871c0.102,0.365,0.1,0.732,0.098,1.057l-0.02,2.879	c-0.007,0.901-0.015,1.923-0.398,2.86c-0.681,1.662-2.344,2.623-3.68,3.396c-0.739,0.428-1.344,0.794-1.837,1.29	c-0.99,0.996-1.443,2.473-1.842,3.774C26.667,39.215,26.473,39.358,26.253,39.358z"/><path fill="#010101" d="M24.685,41.041c-0.039,0-0.078-0.005-0.117-0.014c-0.269-0.064-0.434-0.335-0.37-0.604	c0.106-0.44-0.05-0.986-0.479-1.669c-0.167-0.266-0.348-0.526-0.529-0.786c-0.546-0.785-1.111-1.597-1.324-2.585	c-0.244-1.136,0.03-2.266,0.272-3.262l1.378-5.68c0.065-0.268,0.335-0.427,0.604-0.368c0.269,0.065,0.433,0.336,0.368,0.604	l-1.378,5.68c-0.217,0.892-0.462,1.903-0.267,2.815c0.17,0.792,0.654,1.487,1.167,2.223c0.19,0.274,0.381,0.548,0.556,0.827	c0.578,0.923,0.775,1.719,0.604,2.435C25.115,40.887,24.91,41.041,24.685,41.041z"/><path fill="#010101" d="M22.411,39.949c-0.044,0-0.089-0.006-0.133-0.018c-0.684-0.189-1.129-0.748-1.453-1.155l-1.829-2.292	c-0.753-0.944-1.532-1.921-2.552-2.536c-0.204-0.122-0.449-0.27-0.59-0.551c-0.131-0.261-0.115-0.529-0.104-0.706l0.091-1.542	c0.029-0.484,0.068-1.148,0.457-1.676c0.181-0.246,0.409-0.424,0.61-0.581l0.114-0.089c1.117-0.89,1.839-2.14,2.604-3.464	c0.433-0.748,0.88-1.522,1.407-2.231c0.04-0.054,0.095-0.127,0.104-0.156c-0.002-0.015-0.028-0.097-0.045-0.15	c-0.224-0.69-0.33-1.387-0.323-2.089c0.003-0.274,0.226-0.495,0.5-0.495c0.001,0,0.003,0,0.005,0	c0.276,0.003,0.498,0.229,0.495,0.505c-0.006,0.595,0.083,1.184,0.267,1.75c0.057,0.176,0.125,0.388,0.089,0.634	c-0.04,0.263-0.182,0.454-0.286,0.594c-0.497,0.668-0.929,1.417-1.348,2.141c-0.778,1.346-1.583,2.737-2.847,3.745l-0.123,0.096	c-0.165,0.128-0.32,0.25-0.419,0.384c-0.198,0.269-0.235,0.66-0.264,1.143l-0.091,1.543c-0.003,0.055-0.01,0.168,0.002,0.201	c0.019,0.024,0.123,0.087,0.185,0.124c1.2,0.724,2.074,1.819,2.844,2.785l1.828,2.292c0.311,0.39,0.595,0.72,0.937,0.813	c0.266,0.074,0.423,0.35,0.349,0.615C22.832,39.804,22.63,39.949,22.411,39.949z"/><path fill="#010101" d="M33.645,15.041c-0.135,0-0.271-0.055-0.369-0.162c-0.361-0.396-0.845-0.688-1.363-0.824l-0.232-0.054	c-0.204-0.045-0.435-0.097-0.66-0.195c-0.246-0.108-0.455-0.261-0.639-0.395l-0.115-0.084c-0.606-0.433-1.306-0.757-2.026-0.938	c-1.025-0.259-2.129-0.249-3.194-0.239l-3.548,0.031c-0.072,0-0.191,0.001-0.231,0.02c-0.045,0.022-0.126,0.139-0.186,0.225	c-0.665,0.936-1.488,1.097-2.284,1.253c-0.363,0.071-0.739,0.145-1.108,0.288c-0.257,0.101-0.547-0.027-0.647-0.284	c-0.1-0.258,0.027-0.548,0.285-0.647c0.452-0.177,0.892-0.263,1.279-0.338c0.712-0.14,1.227-0.24,1.616-0.787	c0.163-0.233,0.332-0.477,0.619-0.613c0.241-0.112,0.487-0.114,0.65-0.115l3.547-0.031c1.128-0.012,2.297-0.02,3.448,0.271	c0.852,0.214,1.646,0.582,2.362,1.093l0.124,0.09c0.157,0.114,0.305,0.223,0.453,0.287c0.15,0.066,0.312,0.099,0.472,0.135	c0.091,0.02,0.181,0.04,0.27,0.063c0.703,0.185,1.359,0.581,1.848,1.115c0.186,0.204,0.172,0.521-0.032,0.707	C33.887,14.998,33.766,15.041,33.645,15.041z"/><path fill="#010101" d="M24.445,14.07c-0.242,0-0.455-0.176-0.494-0.423c-0.042-0.273,0.145-0.528,0.417-0.571	c0.351-0.055,0.664-0.108,0.977-0.163c0.318-0.055,0.635-0.109,0.992-0.165c0.141-0.021,0.275-0.054,0.405-0.084	c0.439-0.101,0.938-0.216,1.491,0.026c0.049,0.019,0.221,0.028,0.324,0.034c0.207,0.012,0.42,0.024,0.607,0.095	c0.143,0.055,0.319,0.074,0.501,0.092c0.668,0.064,1.344,0.091,2.01,0.07c0.313,0.013,0.506,0.212,0.513,0.487	c0.007,0.276-0.211,0.506-0.487,0.513c-0.707,0.02-1.423-0.008-2.131-0.074c-0.243-0.023-0.502-0.055-0.76-0.152	c-0.049-0.017-0.206-0.026-0.31-0.032c-0.229-0.013-0.465-0.026-0.669-0.116c-0.237-0.106-0.47-0.06-0.862,0.032	c-0.154,0.035-0.312,0.072-0.478,0.098c-0.351,0.055-0.664,0.108-0.976,0.163c-0.318,0.055-0.635,0.109-0.992,0.165	C24.496,14.068,24.47,14.07,24.445,14.07z"/><path fill="#010101" d="M10.289,21.758c-0.218,0-0.418-0.144-0.48-0.364c-0.118-0.418-0.01-0.979,0.425-1.196	c0.11-0.056,0.229-0.096,0.349-0.135c0.086-0.027,0.167-0.054,0.222-0.084c0.148-0.083,0.256-0.284,0.382-0.517	c0.113-0.209,0.241-0.445,0.432-0.649c0.265-0.284,0.593-0.446,0.883-0.59c0.107-0.053,0.215-0.105,0.318-0.166	c0.364-0.21,0.678-0.521,1.011-0.851l1.835-1.822c0.195-0.194,0.512-0.194,0.707,0.002c0.194,0.196,0.193,0.513-0.003,0.707	l-1.835,1.822c-0.363,0.36-0.738,0.732-1.213,1.007c-0.121,0.07-0.249,0.135-0.377,0.197c-0.233,0.116-0.454,0.225-0.594,0.375	c-0.104,0.111-0.191,0.272-0.284,0.444c-0.174,0.322-0.372,0.688-0.771,0.911c-0.142,0.081-0.283,0.126-0.407,0.165	c-0.041,0.014-0.083,0.026-0.124,0.041c0,0.022,0.001,0.048,0.006,0.066c0.075,0.266-0.08,0.542-0.345,0.617	C10.379,21.752,10.334,21.758,10.289,21.758z M10.682,21.091C10.682,21.091,10.681,21.091,10.682,21.091	C10.681,21.091,10.682,21.091,10.682,21.091z"/><path fill="#010101" d="M14.599,27.408c-0.072,0-0.142-0.008-0.21-0.024c-0.082-0.021-0.816-0.209-1.22-0.499	c-0.224-0.162-0.275-0.475-0.114-0.698c0.161-0.225,0.473-0.276,0.698-0.114c0.16,0.116,0.581,0.267,0.878,0.341	c0.087-0.006,0.447-0.165,0.619-0.242c0.141-0.062,0.266-0.116,0.357-0.147c0.273-0.092,0.554-0.187,0.739-0.349	c0.124-0.11,0.232-0.276,0.337-0.438l0.863-1.317c0.095-0.146,0.194-0.296,0.216-0.422c0.033-0.183-0.102-0.423-0.314-0.558	c-0.316-0.202-0.453-0.262-0.749-0.269c-0.276-0.007-0.495-0.235-0.488-0.512c0.006-0.275,0.22-0.484,0.512-0.488	c0.524,0.013,0.837,0.152,1.264,0.425c0.561,0.358,0.867,0.993,0.76,1.58c-0.058,0.325-0.228,0.583-0.364,0.791l-0.862,1.316	c-0.127,0.195-0.287,0.439-0.513,0.64c-0.337,0.297-0.75,0.436-1.082,0.547c-0.069,0.023-0.164,0.067-0.271,0.114	C15.237,27.271,14.9,27.408,14.599,27.408z"/><path fill="#010101" d="M14.697,25.684c-0.175,0-0.352-0.042-0.518-0.139c-0.239-0.139-0.32-0.445-0.181-0.684	c0.139-0.239,0.445-0.319,0.683-0.182c0.048,0.029,0.231-0.046,0.341-0.22c0.093-0.147,0.155-0.336,0.221-0.536	c0.059-0.178,0.119-0.354,0.197-0.522c0.118-0.249,0.415-0.356,0.666-0.239c0.25,0.117,0.357,0.415,0.24,0.665	c-0.062,0.132-0.107,0.271-0.153,0.41c-0.078,0.237-0.167,0.506-0.325,0.756C15.621,25.385,15.162,25.684,14.697,25.684z"/><path fill="#010101" d="M16.5,17.539c-0.225,0-0.429-0.152-0.485-0.381c-0.061-0.248,0.075-0.498,0.308-0.587	c0.056-0.042,0.15-0.143,0.247-0.254c0.022-0.198,0.161-0.366,0.353-0.424c0.134-0.162,0.251-0.295,0.321-0.355	c0.183-0.155,0.459-0.393,0.835-0.405c1.121-0.041,1.62-0.38,2.198-0.771c0.314-0.213,0.64-0.434,1.069-0.61	c0.169-0.07,0.365-0.042,0.507,0.075c0.143,0.116,0.209,0.301,0.174,0.481c-0.127,0.657-0.417,1.197-0.912,1.701	c-0.122,0.124-0.313,0.302-0.566,0.417c-0.264,0.119-0.532,0.146-0.748,0.168l-2.36,0.242c-0.349,0.416-0.568,0.627-0.821,0.688	C16.579,17.534,16.539,17.539,16.5,17.539z"/><path fill="#010101" d="M11.538,20.438c-0.155,0-0.309-0.072-0.406-0.208c-0.161-0.224-0.111-0.536,0.113-0.697	c0.899-0.648,2.016-1.004,3.113-0.972c0.395,0.008,0.777,0.061,1.147,0.111c0.3,0.042,0.6,0.084,0.902,0.099	c0.475,0.02,1.132-0.031,1.552-0.418c0.204-0.185,0.519-0.173,0.707,0.029c0.187,0.203,0.174,0.52-0.029,0.707	c-0.534,0.491-1.315,0.731-2.278,0.68c-0.331-0.016-0.661-0.061-0.989-0.105c-0.343-0.048-0.686-0.096-1.031-0.103	c-0.899-0.029-1.784,0.26-2.508,0.782C11.742,20.408,11.639,20.438,11.538,20.438z"/><path fill="#010101" fill-rule="evenodd" d="M11.762,19.956c0.934-0.193,1.943,0.013,2.726,0.557 c0.278,0.193,0.549,0.478,0.521,0.815c-0.676-0.114-1.375,0.181-1.984,0.495c-0.673,0.348-1.354,0.885-1.439,1.638 c-0.388-0.212-0.527-0.702-0.542-1.144c-0.026-0.775,0.224-1.557,0.695-2.173" clip-rule="evenodd"/><path fill="#010101" d="M11.587,23.961c-0.083,0-0.165-0.021-0.24-0.062c-0.485-0.265-0.777-0.836-0.801-1.565 c-0.029-0.85,0.225-1.691,0.716-2.383c0.002-0.23,0.164-0.437,0.398-0.484c1.059-0.219,2.224,0.018,3.113,0.636 c0.512,0.356,0.773,0.807,0.734,1.268c-0.012,0.14-0.081,0.268-0.192,0.354c-0.11,0.086-0.252,0.123-0.39,0.098 c-0.535-0.094-1.144,0.175-1.67,0.446c-0.5,0.258-1.108,0.684-1.171,1.249c-0.019,0.166-0.119,0.312-0.267,0.388 C11.745,23.942,11.666,23.961,11.587,23.961z M12.17,20.399c-0.01,0.017-0.021,0.033-0.033,0.049 c-0.398,0.521-0.614,1.196-0.593,1.853c0,0.015,0.001,0.03,0.002,0.046c0.289-0.362,0.708-0.688,1.249-0.968 c0.403-0.208,0.851-0.412,1.322-0.512C13.549,20.501,12.844,20.33,12.17,20.399z"/><path fill="#010101" d="M14.845,29.491c-0.044,0-0.089-0.002-0.136-0.006c-0.12-0.013-0.293-0.043-0.452-0.169	c-0.167-0.131-0.237-0.312-0.271-0.398c-0.105-0.271-0.232-0.512-0.355-0.746c-0.255-0.488-0.518-0.993-0.583-1.663	c-0.027-0.274,0.175-0.52,0.45-0.546c0.27-0.019,0.519,0.175,0.545,0.45c0.046,0.476,0.244,0.855,0.474,1.296	c0.128,0.246,0.26,0.499,0.374,0.778c0.061-0.014,0.12-0.067,0.225-0.232c0.149-0.232,0.458-0.3,0.69-0.153	c0.233,0.148,0.301,0.458,0.153,0.69C15.835,28.989,15.515,29.491,14.845,29.491z"/><g><path fill="red" fill-rule="evenodd" d="M16.523,17.156c-0.158,0.098-0.055,0.561-0.16,0.68 c0.324,0.28,0.782-0.104,0.981-0.305c0.179-0.182-0.418-0.294-0.604-0.403C16.661,17.082,16.565,17.13,16.523,17.156z" clip-rule="evenodd"/><path fill="#010101" d="M16.622,18.439c-0.213,0-0.412-0.074-0.586-0.225c-0.101-0.087-0.163-0.211-0.172-0.344 c-0.006-0.091,0.013-0.18,0.053-0.26c0.003-0.03,0.003-0.064,0.005-0.099c0.01-0.233,0.026-0.587,0.337-0.78 c0.001-0.001,0.002-0.002,0.004-0.003c0.241-0.146,0.514-0.158,0.731-0.031c0.034,0.018,0.093,0.036,0.153,0.058 c0.282,0.102,0.634,0.228,0.715,0.583c0.038,0.166-0.042,0.422-0.162,0.543C17.337,18.25,16.962,18.439,16.622,18.439z M16.487,17.561c0.001,0.001,0.002,0.001,0.004,0.002C16.49,17.562,16.489,17.561,16.487,17.561z M15.988,17.507 C15.988,17.507,15.988,17.507,15.988,17.507C15.988,17.507,15.988,17.507,15.988,17.507z"/></g></svg>